<svg width="23" height="22" viewBox="0 0 23 22" fill="none" xmlns="http://www.w3.org/2000/svg">
<path d="M17.5164 8.43934H5.02849C5.01901 8.43934 5.0127 8.43303 5.0127 8.42355V2.18275C5.0127 1.42122 5.62887 0.80188 6.39357 0.80188H16.1324C16.9065 0.80188 17.5354 1.4307 17.5354 2.20487V8.42355C17.5322 8.43303 17.5227 8.43934 17.5164 8.43934Z" fill="white" stroke="#757575" stroke-width="0.947968" stroke-miterlimit="10"/>
<path d="M20.1732 18.175H2.36717C1.47924 18.175 0.758789 17.4546 0.758789 16.5666V8.78064C0.758789 7.89271 1.47924 7.17224 2.36717 7.17224H20.1732C21.0611 7.17224 21.7816 7.89271 21.7816 8.78064V16.5698C21.7816 17.4577 21.0611 18.175 20.1732 18.175Z" fill="white" stroke="#757575" stroke-width="0.947968" stroke-miterlimit="10"/>
<path d="M16.243 21H6.68112C5.75843 21 5.0127 20.2511 5.0127 19.3315V13.1287H17.9145V19.3315C17.9114 20.2511 17.1656 21 16.243 21Z" fill="white" stroke="#757575" stroke-width="0.947968" stroke-miterlimit="10"/>
<path d="M15.6836 16.238H7.2404C7.04765 16.238 6.88965 16.08 6.88965 15.8873V15.8399C6.88965 15.6471 7.04765 15.4891 7.2404 15.4891H15.6836C15.8764 15.4891 16.0344 15.6471 16.0344 15.8399V15.8873C16.0344 16.0832 15.8764 16.238 15.6836 16.238Z" fill="#757575"/>
<path d="M15.6836 18.6363H7.2404C7.04765 18.6363 6.88965 18.4784 6.88965 18.2856V18.2382C6.88965 18.0454 7.04765 17.8875 7.2404 17.8875H15.6836C15.8764 17.8875 16.0344 18.0454 16.0344 18.2382V18.2856C16.0344 18.4784 15.8764 18.6363 15.6836 18.6363Z" fill="#757575"/>
<path d="M18.3057 11.6245C18.639 11.6245 18.9092 11.3543 18.9092 11.021C18.9092 10.6876 18.639 10.4174 18.3057 10.4174C17.9724 10.4174 17.7021 10.6876 17.7021 11.021C17.7021 11.3543 17.9724 11.6245 18.3057 11.6245Z" fill="#757575"/>
</svg>
